<?xml version="1.0" standalone="no"?><!DOCTYPE svg PUBLIC "-//W3C//DTD SVG 1.1//EN" "http://www.w3.org/Graphics/SVG/1.1/DTD/svg11.dtd"><svg t="1561690824611" class="icon" viewBox="0 0 1024 1024" version="1.1" xmlns="http://www.w3.org/2000/svg" p-id="539" xmlns:xlink="http://www.w3.org/1999/xlink" width="200" height="200"><defs><style type="text/css"></style></defs><path d="M138.971429 636.342857c-14.628571 0-36.571429 0-51.2-7.314286-21.942857-7.314286-29.257143-14.628571-43.885715-21.942857-7.314286-21.942857-14.628571-29.257143-21.942857-43.885714-7.314286-36.571429-7.314286-65.828571 0-102.4 7.314286-7.314286 14.628571-21.942857 21.942857-29.257143 7.314286-7.314286 21.942857-21.942857 43.885715-21.942857 14.628571-7.314286 36.571429-7.314286 51.2-7.314286h14.628571l175.542857-219.428571c0-7.314286-7.314286-14.628571-7.314286-14.628572V146.285714c0-14.628571 0-36.571429 7.314286-51.2 7.314286-14.628571 14.628571-21.942857 36.571429-43.885714 7.314286-7.314286 21.942857-21.942857 43.885714-21.942857 21.942857-7.314286 58.514286-7.314286 95.085714 0 7.314286 0 14.628571 7.314286 29.257143 14.628571 7.314286 7.314286 14.628571 21.942857 21.942857 43.885715s7.314286 36.571429 7.314286 51.2 0 21.942857-7.314286 43.885714c0 7.314286-7.314286 21.942857-14.628571 36.571428l153.6 336.457143 80.457143-153.6c-7.314286-7.314286-7.314286-21.942857-14.628572-36.571428v-36.571429c0-14.628571 0-36.571429 7.314286-51.2 14.628571-36.571429 36.571429-58.514286 73.142857-65.828571 36.571429-14.628571 65.828571-14.628571 102.4 0 14.628571 7.314286 21.942857 14.628571 43.885714 21.942857 7.314286 7.314286 14.628571 21.942857 21.942858 43.885714 7.314286 7.314286 7.314286 21.942857 7.314285 51.2 0 36.571429-14.628571 65.828571-36.571428 95.085714-7.314286 7.314286-21.942857 21.942857-43.885715 21.942858-14.628571 7.314286-36.571429 7.314286-51.2 7.314285h-21.942857l-80.457143 153.6c14.628571 7.314286 21.942857 21.942857 36.571429 43.885715 7.314286 14.628571 7.314286 36.571429 7.314286 51.2 0 51.2-36.571429 102.4-73.142857 117.028571-36.571429 14.628571-65.828571 14.628571-102.4 0-14.628571-7.314286-21.942857-14.628571-43.885715-21.942857-7.314286-7.314286-14.628571-21.942857-21.942857-36.571429 0-14.628571-7.314286-36.571429-7.314286-51.2 0-14.628571 0-36.571429 7.314286-51.2 0-21.942857 7.314286-36.571429 29.257143-43.885714L460.8 263.314286h-36.571429c-7.314286 0-14.628571-7.314286-21.942857-7.314286L241.371429 446.171429c7.314286 7.314286 7.314286 21.942857 14.628571 36.571428v36.571429c0 14.628571 0 36.571429-7.314286 51.2-7.314286 7.314286-14.628571 14.628571-21.942857 36.571428-14.628571 7.314286-21.942857 14.628571-43.885714 21.942857-14.628571 7.314286-29.257143 7.314286-43.885714 7.314286zM7.314286 885.028571h1002.057143v124.342858H7.314286v-124.342858z" p-id="540"></path></svg>